<mxfile host="Electron" agent="Mozilla/5.0 (Windows NT 10.0; Win64; x64) AppleWebKit/537.36 (KHTML, like Gecko) draw.io/27.0.5 Chrome/134.0.6998.205 Electron/35.3.0 Safari/537.36" version="27.0.5">
  <diagram name="第 1 页" id="l4p7lxoINjYZW0kwMBEQ">
    <mxGraphModel dx="1173" dy="683" grid="1" gridSize="10" guides="1" tooltips="1" connect="1" arrows="1" fold="1" page="1" pageScale="1" pageWidth="827" pageHeight="1169" math="0" shadow="0">
      <root>
        <mxCell id="0" />
        <mxCell id="1" parent="0" />
        <mxCell id="qgisS_-J0pdYo29qCXWB-1" value="Maven概念模型图" style="text;html=1;align=center;verticalAlign=middle;whiteSpace=wrap;rounded=0;fontSize=20;" vertex="1" parent="1">
          <mxGeometry x="240" y="240" width="240" height="40" as="geometry" />
        </mxCell>
        <mxCell id="qgisS_-J0pdYo29qCXWB-2" value="" style="rounded=0;whiteSpace=wrap;html=1;fillColor=none;fontColor=#333333;strokeColor=#666666;movable=0;resizable=0;rotatable=0;deletable=0;editable=0;locked=1;connectable=0;" vertex="1" parent="1">
          <mxGeometry x="160" y="320" width="360" height="300" as="geometry" />
        </mxCell>
        <mxCell id="qgisS_-J0pdYo29qCXWB-7" style="edgeStyle=orthogonalEdgeStyle;rounded=0;orthogonalLoop=1;jettySize=auto;html=1;exitX=1;exitY=0.5;exitDx=0;exitDy=0;" edge="1" parent="1" source="qgisS_-J0pdYo29qCXWB-4">
          <mxGeometry relative="1" as="geometry">
            <mxPoint x="200" y="379.8571428571429" as="targetPoint" />
          </mxGeometry>
        </mxCell>
        <mxCell id="qgisS_-J0pdYo29qCXWB-4" value="&lt;font style=&quot;font-size: 14px;&quot;&gt;POM.xml&lt;/font&gt;" style="rounded=0;whiteSpace=wrap;html=1;" vertex="1" parent="1">
          <mxGeometry x="40" y="360" width="80" height="40" as="geometry" />
        </mxCell>
        <mxCell id="qgisS_-J0pdYo29qCXWB-44" style="edgeStyle=orthogonalEdgeStyle;rounded=0;orthogonalLoop=1;jettySize=auto;html=1;exitX=1;exitY=0.25;exitDx=0;exitDy=0;" edge="1" parent="1" source="qgisS_-J0pdYo29qCXWB-5">
          <mxGeometry relative="1" as="geometry">
            <mxPoint x="360" y="370.06711409395973" as="targetPoint" />
          </mxGeometry>
        </mxCell>
        <mxCell id="qgisS_-J0pdYo29qCXWB-5" value="项目对象模型&lt;div&gt;(POM)&lt;/div&gt;" style="rounded=0;whiteSpace=wrap;html=1;fillColor=#d5e8d4;strokeColor=#82b366;" vertex="1" parent="1">
          <mxGeometry x="200" y="360" width="120" height="40" as="geometry" />
        </mxCell>
        <mxCell id="qgisS_-J0pdYo29qCXWB-29" style="rounded=0;orthogonalLoop=1;jettySize=auto;html=1;exitX=1;exitY=0.5;exitDx=0;exitDy=0;entryX=0;entryY=0.5;entryDx=0;entryDy=0;" edge="1" parent="1" source="qgisS_-J0pdYo29qCXWB-6" target="qgisS_-J0pdYo29qCXWB-9">
          <mxGeometry relative="1" as="geometry" />
        </mxCell>
        <mxCell id="qgisS_-J0pdYo29qCXWB-30" style="rounded=0;orthogonalLoop=1;jettySize=auto;html=1;exitX=1;exitY=0.5;exitDx=0;exitDy=0;entryX=0;entryY=0.5;entryDx=0;entryDy=0;" edge="1" parent="1" source="qgisS_-J0pdYo29qCXWB-6" target="qgisS_-J0pdYo29qCXWB-10">
          <mxGeometry relative="1" as="geometry" />
        </mxCell>
        <mxCell id="qgisS_-J0pdYo29qCXWB-31" style="rounded=0;orthogonalLoop=1;jettySize=auto;html=1;exitX=1;exitY=0.5;exitDx=0;exitDy=0;entryX=0;entryY=0.5;entryDx=0;entryDy=0;" edge="1" parent="1" source="qgisS_-J0pdYo29qCXWB-6" target="qgisS_-J0pdYo29qCXWB-11">
          <mxGeometry relative="1" as="geometry" />
        </mxCell>
        <mxCell id="qgisS_-J0pdYo29qCXWB-45" style="edgeStyle=orthogonalEdgeStyle;rounded=0;orthogonalLoop=1;jettySize=auto;html=1;exitX=0;exitY=0.75;exitDx=0;exitDy=0;" edge="1" parent="1" source="qgisS_-J0pdYo29qCXWB-6">
          <mxGeometry relative="1" as="geometry">
            <mxPoint x="320" y="390.06711409395973" as="targetPoint" />
          </mxGeometry>
        </mxCell>
        <mxCell id="qgisS_-J0pdYo29qCXWB-6" value="依赖管理模型&lt;div&gt;(Dependency)&lt;/div&gt;" style="rounded=0;whiteSpace=wrap;html=1;fillColor=#d5e8d4;strokeColor=#82b366;" vertex="1" parent="1">
          <mxGeometry x="360" y="360" width="120" height="40" as="geometry" />
        </mxCell>
        <mxCell id="qgisS_-J0pdYo29qCXWB-9" value="central" style="rounded=0;whiteSpace=wrap;html=1;" vertex="1" parent="1">
          <mxGeometry x="560" y="300" width="80" height="40" as="geometry" />
        </mxCell>
        <mxCell id="qgisS_-J0pdYo29qCXWB-10" value="b2b" style="rounded=0;whiteSpace=wrap;html=1;" vertex="1" parent="1">
          <mxGeometry x="560" y="360" width="80" height="40" as="geometry" />
        </mxCell>
        <mxCell id="qgisS_-J0pdYo29qCXWB-11" value="local" style="rounded=0;whiteSpace=wrap;html=1;" vertex="1" parent="1">
          <mxGeometry x="560" y="420" width="80" height="40" as="geometry" />
        </mxCell>
        <mxCell id="qgisS_-J0pdYo29qCXWB-12" value="Build lifecycle &amp;amp; phases" style="rounded=0;whiteSpace=wrap;html=1;fillColor=#d5e8d4;strokeColor=#82b366;" vertex="1" parent="1">
          <mxGeometry x="200" y="420" width="280" height="40" as="geometry" />
        </mxCell>
        <mxCell id="qgisS_-J0pdYo29qCXWB-13" value="" style="endArrow=none;dashed=1;html=1;rounded=0;" edge="1" parent="1">
          <mxGeometry width="50" height="50" relative="1" as="geometry">
            <mxPoint x="200" y="480" as="sourcePoint" />
            <mxPoint x="480" y="480" as="targetPoint" />
          </mxGeometry>
        </mxCell>
        <mxCell id="qgisS_-J0pdYo29qCXWB-18" value="" style="group" vertex="1" connectable="0" parent="1">
          <mxGeometry x="200" y="500" width="80" height="100" as="geometry" />
        </mxCell>
        <mxCell id="qgisS_-J0pdYo29qCXWB-46" style="edgeStyle=orthogonalEdgeStyle;rounded=0;orthogonalLoop=1;jettySize=auto;html=1;exitX=0.5;exitY=0;exitDx=0;exitDy=0;startArrow=classic;startFill=1;" edge="1" parent="qgisS_-J0pdYo29qCXWB-18" source="qgisS_-J0pdYo29qCXWB-14">
          <mxGeometry relative="1" as="geometry">
            <mxPoint x="40" y="-40" as="targetPoint" />
          </mxGeometry>
        </mxCell>
        <mxCell id="qgisS_-J0pdYo29qCXWB-14" value="" style="rounded=0;whiteSpace=wrap;html=1;" vertex="1" parent="qgisS_-J0pdYo29qCXWB-18">
          <mxGeometry width="80" height="100" as="geometry" />
        </mxCell>
        <mxCell id="qgisS_-J0pdYo29qCXWB-15" value="Plug-in" style="rounded=0;whiteSpace=wrap;html=1;fillColor=#fff2cc;strokeColor=#d6b656;" vertex="1" parent="qgisS_-J0pdYo29qCXWB-18">
          <mxGeometry x="15" y="10" width="50" height="20" as="geometry" />
        </mxCell>
        <mxCell id="qgisS_-J0pdYo29qCXWB-16" value="mojo" style="rounded=0;whiteSpace=wrap;html=1;fillColor=#e1d5e7;strokeColor=#9673a6;" vertex="1" parent="qgisS_-J0pdYo29qCXWB-18">
          <mxGeometry x="15" y="40" width="50" height="20" as="geometry" />
        </mxCell>
        <mxCell id="qgisS_-J0pdYo29qCXWB-17" value="mojo" style="rounded=0;whiteSpace=wrap;html=1;fillColor=#e1d5e7;strokeColor=#9673a6;" vertex="1" parent="qgisS_-J0pdYo29qCXWB-18">
          <mxGeometry x="15" y="70" width="50" height="20" as="geometry" />
        </mxCell>
        <mxCell id="qgisS_-J0pdYo29qCXWB-19" value="" style="group" vertex="1" connectable="0" parent="1">
          <mxGeometry x="300" y="500" width="80" height="100" as="geometry" />
        </mxCell>
        <mxCell id="qgisS_-J0pdYo29qCXWB-40" style="rounded=0;orthogonalLoop=1;jettySize=auto;html=1;exitX=0.5;exitY=1;exitDx=0;exitDy=0;" edge="1" parent="qgisS_-J0pdYo29qCXWB-19" source="qgisS_-J0pdYo29qCXWB-20">
          <mxGeometry relative="1" as="geometry">
            <mxPoint x="-40" y="180" as="targetPoint" />
          </mxGeometry>
        </mxCell>
        <mxCell id="qgisS_-J0pdYo29qCXWB-47" style="edgeStyle=orthogonalEdgeStyle;rounded=0;orthogonalLoop=1;jettySize=auto;html=1;exitX=0.5;exitY=0;exitDx=0;exitDy=0;startArrow=classic;startFill=1;" edge="1" parent="qgisS_-J0pdYo29qCXWB-19" source="qgisS_-J0pdYo29qCXWB-20">
          <mxGeometry relative="1" as="geometry">
            <mxPoint x="40" y="-40" as="targetPoint" />
          </mxGeometry>
        </mxCell>
        <mxCell id="qgisS_-J0pdYo29qCXWB-20" value="" style="rounded=0;whiteSpace=wrap;html=1;" vertex="1" parent="qgisS_-J0pdYo29qCXWB-19">
          <mxGeometry width="80" height="100" as="geometry" />
        </mxCell>
        <mxCell id="qgisS_-J0pdYo29qCXWB-21" value="Plug-in" style="rounded=0;whiteSpace=wrap;html=1;fillColor=#fff2cc;strokeColor=#d6b656;" vertex="1" parent="qgisS_-J0pdYo29qCXWB-19">
          <mxGeometry x="15" y="10" width="50" height="20" as="geometry" />
        </mxCell>
        <mxCell id="qgisS_-J0pdYo29qCXWB-22" value="mojo" style="rounded=0;whiteSpace=wrap;html=1;fillColor=#e1d5e7;strokeColor=#9673a6;" vertex="1" parent="qgisS_-J0pdYo29qCXWB-19">
          <mxGeometry x="15" y="40" width="50" height="20" as="geometry" />
        </mxCell>
        <mxCell id="qgisS_-J0pdYo29qCXWB-23" value="mojo" style="rounded=0;whiteSpace=wrap;html=1;fillColor=#e1d5e7;strokeColor=#9673a6;" vertex="1" parent="qgisS_-J0pdYo29qCXWB-19">
          <mxGeometry x="15" y="70" width="50" height="20" as="geometry" />
        </mxCell>
        <mxCell id="qgisS_-J0pdYo29qCXWB-24" value="" style="group" vertex="1" connectable="0" parent="1">
          <mxGeometry x="400" y="500" width="80" height="100" as="geometry" />
        </mxCell>
        <mxCell id="qgisS_-J0pdYo29qCXWB-48" style="edgeStyle=orthogonalEdgeStyle;rounded=0;orthogonalLoop=1;jettySize=auto;html=1;exitX=0.5;exitY=0;exitDx=0;exitDy=0;startArrow=classic;startFill=1;" edge="1" parent="qgisS_-J0pdYo29qCXWB-24" source="qgisS_-J0pdYo29qCXWB-25">
          <mxGeometry relative="1" as="geometry">
            <mxPoint x="40" y="-40" as="targetPoint" />
          </mxGeometry>
        </mxCell>
        <mxCell id="qgisS_-J0pdYo29qCXWB-25" value="" style="rounded=0;whiteSpace=wrap;html=1;" vertex="1" parent="qgisS_-J0pdYo29qCXWB-24">
          <mxGeometry width="80" height="100" as="geometry" />
        </mxCell>
        <mxCell id="qgisS_-J0pdYo29qCXWB-26" value="Plug-in" style="rounded=0;whiteSpace=wrap;html=1;fillColor=#fff2cc;strokeColor=#d6b656;" vertex="1" parent="qgisS_-J0pdYo29qCXWB-24">
          <mxGeometry x="15" y="10" width="50" height="20" as="geometry" />
        </mxCell>
        <mxCell id="qgisS_-J0pdYo29qCXWB-27" value="mojo" style="rounded=0;whiteSpace=wrap;html=1;fillColor=#e1d5e7;strokeColor=#9673a6;" vertex="1" parent="qgisS_-J0pdYo29qCXWB-24">
          <mxGeometry x="15" y="40" width="50" height="20" as="geometry" />
        </mxCell>
        <mxCell id="qgisS_-J0pdYo29qCXWB-28" value="mojo" style="rounded=0;whiteSpace=wrap;html=1;fillColor=#e1d5e7;strokeColor=#9673a6;" vertex="1" parent="qgisS_-J0pdYo29qCXWB-24">
          <mxGeometry x="15" y="70" width="50" height="20" as="geometry" />
        </mxCell>
        <mxCell id="qgisS_-J0pdYo29qCXWB-32" value="&lt;span style=&quot;font-size: 14px;&quot;&gt;源文件&lt;/span&gt;" style="rounded=0;whiteSpace=wrap;html=1;" vertex="1" parent="1">
          <mxGeometry x="150" y="680" width="60" height="40" as="geometry" />
        </mxCell>
        <mxCell id="qgisS_-J0pdYo29qCXWB-33" value="&lt;span style=&quot;font-size: 14px;&quot;&gt;中间&lt;/span&gt;&lt;div&gt;&lt;span style=&quot;font-size: 14px;&quot;&gt;产出文件&lt;/span&gt;&lt;/div&gt;" style="rounded=0;whiteSpace=wrap;html=1;" vertex="1" parent="1">
          <mxGeometry x="230" y="680" width="60" height="40" as="geometry" />
        </mxCell>
        <mxCell id="qgisS_-J0pdYo29qCXWB-34" value="&lt;span style=&quot;font-size: 14px;&quot;&gt;资源文件&lt;/span&gt;" style="rounded=0;whiteSpace=wrap;html=1;" vertex="1" parent="1">
          <mxGeometry x="310" y="680" width="60" height="40" as="geometry" />
        </mxCell>
        <mxCell id="qgisS_-J0pdYo29qCXWB-35" value="&lt;span style=&quot;font-size: 14px;&quot;&gt;二进制&lt;/span&gt;&lt;div&gt;&lt;span style=&quot;font-size: 14px;&quot;&gt;产出物&lt;/span&gt;&lt;/div&gt;" style="rounded=0;whiteSpace=wrap;html=1;" vertex="1" parent="1">
          <mxGeometry x="390" y="680" width="60" height="40" as="geometry" />
        </mxCell>
        <mxCell id="qgisS_-J0pdYo29qCXWB-36" value="&lt;span style=&quot;font-size: 14px;&quot;&gt;打包&lt;/span&gt;&lt;div&gt;&lt;span style=&quot;font-size: 14px;&quot;&gt;产出物&lt;/span&gt;&lt;/div&gt;" style="rounded=0;whiteSpace=wrap;html=1;" vertex="1" parent="1">
          <mxGeometry x="470" y="680" width="60" height="40" as="geometry" />
        </mxCell>
        <mxCell id="qgisS_-J0pdYo29qCXWB-37" style="rounded=0;orthogonalLoop=1;jettySize=auto;html=1;exitX=0.5;exitY=1;exitDx=0;exitDy=0;entryX=0.5;entryY=0;entryDx=0;entryDy=0;" edge="1" parent="1" source="qgisS_-J0pdYo29qCXWB-14" target="qgisS_-J0pdYo29qCXWB-32">
          <mxGeometry relative="1" as="geometry" />
        </mxCell>
        <mxCell id="qgisS_-J0pdYo29qCXWB-38" style="rounded=0;orthogonalLoop=1;jettySize=auto;html=1;exitX=0.5;exitY=1;exitDx=0;exitDy=0;entryX=0.5;entryY=0;entryDx=0;entryDy=0;" edge="1" parent="1" source="qgisS_-J0pdYo29qCXWB-14" target="qgisS_-J0pdYo29qCXWB-33">
          <mxGeometry relative="1" as="geometry" />
        </mxCell>
        <mxCell id="qgisS_-J0pdYo29qCXWB-39" style="rounded=0;orthogonalLoop=1;jettySize=auto;html=1;exitX=0.5;exitY=1;exitDx=0;exitDy=0;entryX=0.5;entryY=0;entryDx=0;entryDy=0;" edge="1" parent="1" source="qgisS_-J0pdYo29qCXWB-14" target="qgisS_-J0pdYo29qCXWB-34">
          <mxGeometry relative="1" as="geometry" />
        </mxCell>
        <mxCell id="qgisS_-J0pdYo29qCXWB-41" style="rounded=0;orthogonalLoop=1;jettySize=auto;html=1;exitX=0.5;exitY=1;exitDx=0;exitDy=0;entryX=0.5;entryY=0;entryDx=0;entryDy=0;" edge="1" parent="1" source="qgisS_-J0pdYo29qCXWB-20" target="qgisS_-J0pdYo29qCXWB-35">
          <mxGeometry relative="1" as="geometry" />
        </mxCell>
        <mxCell id="qgisS_-J0pdYo29qCXWB-42" style="rounded=0;orthogonalLoop=1;jettySize=auto;html=1;exitX=0.5;exitY=1;exitDx=0;exitDy=0;entryX=0.5;entryY=0;entryDx=0;entryDy=0;" edge="1" parent="1" source="qgisS_-J0pdYo29qCXWB-25" target="qgisS_-J0pdYo29qCXWB-35">
          <mxGeometry relative="1" as="geometry" />
        </mxCell>
        <mxCell id="qgisS_-J0pdYo29qCXWB-43" style="rounded=0;orthogonalLoop=1;jettySize=auto;html=1;exitX=0.5;exitY=1;exitDx=0;exitDy=0;entryX=0.5;entryY=0;entryDx=0;entryDy=0;" edge="1" parent="1" source="qgisS_-J0pdYo29qCXWB-25" target="qgisS_-J0pdYo29qCXWB-36">
          <mxGeometry relative="1" as="geometry" />
        </mxCell>
      </root>
    </mxGraphModel>
  </diagram>
</mxfile>
